Remember Me 2010 720p BluRay x264-MACHD  
http://thepiratebay.org/torrent/5607979/Remember_Me_2010_720p_BluRay_x264-MACHD

Remember Me (2010) DVDRip XviD-MAX 

Format                           : AVI
Format/Info                      : Audio Video Interleave 
Format profile                   : OpenDML
File size                        : 1.26 GiB 
Duration                         : 1h 52mn 
Overall bit rate                 : 1 603 Kbps
Writing application              : VirtualDubMod 1.5.10.2 (build 2542/release)
Writing library                  : VirtualDubMod build 2542/release
Original source form             : MAX TORRENTZ
Copyright                        : SIGISMUNT 

Video
ID                               : 0
Format                           : MPEG-4 Visual
Format profile                   : AdvancedSimple@L5
Format settings, BVOP            : Yes
Format settings, QPel            : No 
Format settings, GMC             : No warppoints
Format settings, Matrix          : Custom 
Codec ID                         : XVID
Codec ID/Hint                    : XviD
Duration                         : 1h 52mn
Bit rate                         : 1 213 Kbps
Width                            : 720 pixels
Height                           : 400 pixels
Display aspect ratio             : 16:9
Frame rate                       : 23.976 fps
Resolution                       : 24 bits
Colorimetry                      : 4:2:0
Scan type                        : Progressive
Bits/(Pixel*Frame)               : 0.176
Stream size                      : 975 MiB (76%)
Writing library                  : XviD 1.2.1 (UTC 2008-12-04)

Audio
ID                               : 1
Format                           : AC-3
Format/Info                      : Audio Coding 3
Codec ID                         : 2000
Duration                         : 1h 52mn
Bit rate mode                    : Constant
Bit rate                         : 384 Kbps
Channel(s)                       : 6 channels
Channel positions                : Front: L C R, Surround: L R, LFE
Sampling rate                    : 48.0 KHz
Stream size                      : 309 MiB (24%)
Alignment                        : Aligned on interleaves
Interleave, duration             : 64 ms (1.53 video frames)
Interleave, preload duration     : 192 ms

Source: 720p BluRay 
http://www.imdb.com/title/tt1403981/

Screens: 
http://www.postimg.com/image/16000/15629.jpg 
http://www.postimg.com/image/16000/15630.jpg 
http://www.postimg.com/image/16000/15631.jpg 
http://www.postimg.com/image/16000/15632.jpg 
http://www.postimg.com/image/16000/15633.jpg 

ScreenCaps: 
http://www.postimg.com/image/16000/15634.jpg

Remember Me (2010) DVDRip XviD-MAX Torrent Free Download 
http://thepiratebay.org/user/extremezone/0/7

How To Get Your Maxspeed (uTorrent)

Torrent Client - Preferences - Bandwidth - Number of connections - Set aprox. 500 for each 
Torrent Client - Preferences - BiTorrent - Protocol Encryption - Forced
Bandwidth Allocation - High (Set download/upload limit - Unlimited)
Stop Other Active Torrents - Start downloading and wait for connections
Enjoy and Seed for at least 1:1 ratio. Don't forget to say thanks/leave reviews.
Also please spread the link where you found this torrent to your friends.
Recommended player for all our movies VLC PLAYER.